<svg width="55" height="18" viewBox="0 0 55 18" fill="none" xmlns="http://www.w3.org/2000/svg">
<path d="M55.0002 17.4879H50.8596C50.7079 16.7626 50.5455 16.048 50.4172 15.3294C50.3614 15.0315 50.2688 14.9155 49.9358 14.9199C48.2755 14.9411 46.6147 14.9361 44.9544 14.9227C44.8566 14.9076 44.7568 14.9317 44.6767 14.9898C44.5965 15.0479 44.5426 15.1352 44.5265 15.2329C44.2978 15.9174 44.0479 16.5947 43.7918 17.2697C43.7572 17.3612 43.6417 17.4868 43.5631 17.4879C42.0668 17.5007 40.57 17.4974 39.0303 17.4974C39.3092 16.8218 39.5764 16.1763 39.8465 15.533C41.7764 10.929 43.7065 6.32519 45.6367 1.72154C45.7768 1.27941 46.0635 0.89828 46.4494 0.641061C46.8354 0.383841 47.2975 0.265913 47.7595 0.306747H51.3946C51.5146 0.867977 51.6356 1.42251 51.7511 1.97538C52.7006 6.5251 53.6502 11.0748 54.5997 15.6245C54.7219 16.2075 54.8652 16.7855 54.9991 17.3657L55.0002 17.4879ZM49.5815 11.3824L48.2671 5.09227L48.2114 5.08167L45.9274 11.3818L49.5815 11.3824Z" fill="white"/>
<path d="M36.9626 0C37.5088 0.101535 38.0594 0.184659 38.6006 0.309625C39.0943 0.421202 39.5774 0.58243 40.1024 0.731943L39.3275 4.35818C38.6352 4.15511 37.9735 3.92136 37.2935 3.77129C36.3718 3.53114 35.4051 3.5229 34.4795 3.7473C34.0903 3.85767 33.7289 4.04955 33.4195 4.3102C33.3011 4.39817 33.2044 4.51209 33.1369 4.64322C33.0694 4.77435 33.0328 4.91922 33.0299 5.06669C33.027 5.21416 33.058 5.36033 33.1204 5.49398C33.1828 5.62763 33.275 5.74521 33.3899 5.83769C33.7382 6.14833 34.1183 6.42118 34.5241 6.65164C35.4301 7.19613 36.3813 7.67033 37.2617 8.2522C37.783 8.55942 38.2289 8.97941 38.5668 9.48139C38.9046 9.98336 39.1259 10.5546 39.2142 11.1532C39.3841 12.1776 39.2417 13.2294 38.8056 14.1717C38.3695 15.1141 37.6599 15.9034 36.769 16.4369C35.5827 17.1841 34.228 17.6218 32.8287 17.71C30.8866 17.8935 28.9276 17.6714 27.0758 17.0578C26.9503 17.0165 26.8281 16.9652 26.7059 16.915C26.6627 16.8925 26.6211 16.867 26.5815 16.8386L27.3832 13.0846C27.7023 13.2241 28.0019 13.3635 28.3082 13.4868C29.7341 14.1123 31.3113 14.3088 32.8471 14.0525C33.2649 13.9687 33.6619 13.803 34.0153 13.5649C34.1885 13.4629 34.3343 13.3202 34.4399 13.1492C34.5455 12.9782 34.6079 12.784 34.6216 12.5834C34.6353 12.3829 34.5998 12.182 34.5184 11.9982C34.437 11.8144 34.312 11.6532 34.1542 11.5287C33.6828 11.1598 33.1818 10.8303 32.6563 10.5434C31.8586 10.0575 31.0106 9.64301 30.2574 9.09907C29.7673 8.78117 29.3523 8.36041 29.0411 7.86601C28.73 7.3716 28.5301 6.8154 28.4555 6.23601C28.3479 5.38153 28.4677 4.51379 28.8027 3.72039C29.1376 2.92698 29.676 2.23599 30.3634 1.71716C31.5945 0.762634 33.0769 0.187277 34.6296 0.0613675C34.7164 0.0461493 34.8023 0.0258439 34.8867 0.000557576L36.9626 0Z" fill="white"/>
<path d="M20.8617 0.32105C20.629 0.878933 20.4087 1.4145 20.1855 1.94672C18.0548 7.03015 15.9253 12.1143 13.7972 17.1992C13.7696 17.2988 13.7064 17.3847 13.6196 17.4408C13.5328 17.4968 13.4285 17.5191 13.3264 17.5033C11.9813 17.4921 10.6362 17.4877 9.29175 17.5061C9.00667 17.51 8.9135 17.4101 8.84544 17.1541C7.70513 12.7111 6.54585 8.27256 5.41893 3.82567C5.34551 3.44713 5.1798 3.09255 4.93651 2.7934C4.69322 2.49425 4.37985 2.25976 4.02422 2.11074C2.77999 1.57895 1.48984 1.16179 0.169807 0.864429C0.114019 0.850482 0.0537656 0.835418 -0.00146484 0.821471C0.00522975 0.305987 0.00523123 0.305987 0.49561 0.305987C2.84913 0.305987 5.20284 0.305987 7.55673 0.305987C8.06705 0.279496 8.56883 0.444739 8.96355 0.769267C9.35827 1.0938 9.61741 1.55416 9.69008 2.05997C10.2878 5.18821 10.8786 8.31774 11.4625 11.4486C11.4881 11.5853 11.5183 11.7214 11.5568 11.9144C11.6176 11.7995 11.6605 11.7353 11.6884 11.665C13.1504 7.96739 14.61 4.26882 16.0672 0.569308C16.0879 0.483302 16.1399 0.408086 16.213 0.358359C16.2861 0.308632 16.3752 0.287968 16.4628 0.300408C17.8279 0.311008 19.1936 0.30543 20.5588 0.306546C20.6486 0.307662 20.7367 0.314914 20.8617 0.32105Z" fill="white"/>
<path d="M19.0791 17.497L22.7539 0.324219H27.2136C27.0278 1.19563 26.8465 2.04975 26.6635 2.90443C25.653 7.62783 24.6451 12.3531 23.6398 17.0802C23.5706 17.4088 23.454 17.5131 23.1132 17.5065C21.8908 17.483 20.6679 17.497 19.4456 17.497H19.0791Z" fill="white"/>
</svg>
